# xmcd
#
# Track frame offsets:
#	150
#	13000
#	32843
#	45463
#	65379
#	77669
#	90089
#	99819
#	110747
#	123410
#	138159
#	150489
#	162662
#	176994
#	186985
#	198419
#	211108
#	233119
#
# Disc length: 3288
#
# Revision: 2
# Processed by: cddbd v1.5.1PL0 Copyright (c) Steve Scherf et al.
# Submitted via: dBpowerAMP V4.0
# Normalized: r0:TSWAP
#
DISCID=e60cd612
DTITLE=Various Artist - Dirty Work Going On (Blues Compilation)
DYEAR=2000
DGENRE=Blues
TTITLE0=Tommy Tucker - High Heel Sneakers
TTITLE1=Muddy Waters - Young Fashioned Ways
TTITLE2=Sonny Boy Williamson - One Way Out
TTITLE3=Bo Diddley - I Can Tell
TTITLE4=Chuck Berry - The Things I Used To Do
TTITLE5=Koko Taylor - Violent Love
TTITLE6=Willie Dixon - 29 Ways
TTITLE7=Howlin' Wolf - Wang Dang Doodle
TTITLE8=Little Walter - Boom Boom Out Go The Lights
TTITLE9=J.B. Lenoir - I Been Down So Long
TTITLE10=John Lee Hooker - I'm In The Mood
TTITLE11=Otis Rush - You Know My Love
TTITLE12=Buddy Guy - My Time After A While
TTITLE13=Lowell Fulson - Shed No Tears
TTITLE14=Jimmy Rogers - You're The One
TTITLE15=Little Joe Blue - Dirty Work Gong On
TTITLE16=Super Blues Band - Long Distance Call
TTITLE17=Little - Milton - Who's Cheating Who
EXTD=steve jordan
EXTT0=
EXTT1=
EXTT2=
EXTT3=
EXTT4=
EXTT5=
EXTT6=
EXTT7=
EXTT8=
EXTT9=
EXTT10=
EXTT11=
EXTT12=
EXTT13=
EXTT14=
EXTT15=
EXTT16=
EXTT17=
PLAYORDER=
